<?xml version="1.0" standalone="no"?>
<!DOCTYPE svg PUBLIC "-//W3C//DTD SVG 20010904//EN"
 "http://www.w3.org/TR/2001/REC-SVG-20010904/DTD/svg10.dtd">
<svg version="1.0" xmlns="http://www.w3.org/2000/svg"
 width="200.000000pt" height="200.000000pt" viewBox="0 0 200.000000 200.000000"
 preserveAspectRatio="xMidYMid meet">

<g transform="translate(0.000000,200.000000) scale(0.100000,-0.100000)"
fill="#000000" stroke="none">
<path d="M797 1180 c-3 -14 -14 -20 -31 -20 -35 0 -33 -18 2 -22 26 -3 27 -6
30 -65 l3 -63 -36 0 -35 0 0 75 0 75 -30 0 -30 0 0 -90 0 -90 65 0 c63 0 65
-1 65 -25 0 -34 47 -37 52 -2 3 19 10 22 58 25 30 2 58 9 62 15 4 7 8 47 8 90
l0 77 -61 0 c-52 0 -62 3 -66 20 -3 13 -14 20 -28 20 -14 0 -25 -7 -28 -20z
m123 -105 l0 -65 -35 0 -35 0 0 58 c0 32 3 62 7 65 3 4 19 7 35 7 28 0 28 0
28 -65z"/>
<path d="M1063 1193 c-48 -5 -63 -33 -18 -33 14 0 25 -4 25 -10 0 -5 -11 -10
-25 -10 -16 0 -25 -6 -25 -15 0 -9 9 -15 25 -15 25 0 25 -1 25 -90 0 -83 1
-90 20 -90 19 0 20 7 20 90 l0 90 30 0 c20 0 30 5 30 15 0 10 -10 15 -30 15
-16 0 -30 5 -30 10 0 6 14 13 30 17 17 3 30 12 30 19 0 14 -15 15 -107 7z"/>
<path d="M1250 1106 l0 -96 -40 0 c-29 0 -40 -4 -40 -15 0 -11 11 -15 40 -15
36 0 40 -2 40 -25 0 -21 5 -25 29 -25 36 0 38 14 31 160 l-5 105 -27 3 -28 3
0 -95z"/>
<path d="M1460 1190 c0 -5 -11 -10 -25 -10 -16 0 -25 -6 -25 -15 0 -9 9 -15
25 -15 20 0 25 -5 25 -25 0 -21 -5 -25 -30 -25 -28 0 -30 2 -30 41 0 38 -1 40
-27 37 -28 -3 -28 -3 -31 -90 l-3 -88 61 0 60 0 0 -30 0 -30 90 0 c73 0 90 3
90 15 0 12 -13 15 -60 15 -46 0 -60 3 -60 15 0 10 15 15 58 17 l57 3 3 88 3
87 -61 0 c-33 0 -60 4 -60 10 0 6 -13 10 -30 10 -16 0 -30 -4 -30 -10z m120
-105 l0 -65 -30 0 c-25 0 -30 4 -30 25 0 20 5 25 25 25 16 0 25 6 25 15 0 9
-9 15 -25 15 -20 0 -25 5 -25 25 0 21 5 25 30 25 l30 0 0 -65z m-122 -37 c-2
-17 -11 -24 -30 -26 -24 -3 -28 0 -28 22 0 22 4 26 31 26 26 0 30 -3 27 -22z"/>
<path d="M1685 1180 c-4 -12 -5 -23 -3 -24 1 -1 69 0 151 2 117 3 147 7 147
18 0 11 -21 14 -99 14 -54 0 -119 3 -144 6 -40 6 -46 4 -52 -16z"/>
<path d="M1200 1145 c0 -16 6 -25 15 -25 9 0 15 9 15 25 0 16 -6 25 -15 25 -9
0 -15 -9 -15 -25z"/>
<path d="M1680 1125 c0 -13 23 -15 150 -15 127 0 150 2 150 15 0 13 -23 15
-150 15 -127 0 -150 -2 -150 -15z"/>
<path d="M232 1115 c-131 -29 -222 -88 -222 -144 0 -56 81 -91 210 -91 82 0
85 21 6 37 -43 9 -68 20 -83 38 -38 44 -4 91 102 141 78 37 77 38 -13 19z"/>
<path d="M1026 1074 c-3 -9 -6 -40 -6 -71 0 -46 3 -54 18 -51 14 3 18 16 20
71 2 53 0 67 -11 67 -8 0 -18 -7 -21 -16z"/>
<path d="M1120 1051 c0 -59 11 -101 26 -101 11 0 14 17 14 70 0 63 -2 70 -20
70 -17 0 -20 -7 -20 -39z"/>
<path d="M1200 1070 c0 -11 7 -20 15 -20 8 0 15 9 15 20 0 11 -7 20 -15 20 -8
0 -15 -9 -15 -20z"/>
<path d="M1680 1075 c0 -12 19 -15 110 -15 l109 0 3 -57 3 -58 43 -3 c33 -2
42 0 42 12 0 9 -7 16 -15 16 -12 0 -15 13 -15 60 l0 60 -140 0 c-118 0 -140
-2 -140 -15z"/>
<path d="M223 1056 c-79 -37 -94 -83 -33 -104 20 -7 28 -8 24 -1 -13 21 8 60
46 85 70 47 47 59 -37 20z"/>
<path d="M456 943 c-4 -5 -11 -8 -14 -8 -13 -1 -87 -16 -104 -21 -10 -3 -18
-10 -18 -15 0 -13 62 -1 71 13 3 5 12 6 21 3 8 -3 26 3 39 14 13 11 21 20 18
21 -3 0 -9 -3 -13 -7z"/>
<path d="M703 863 c22 -6 21 -9 -4 -44 l-20 -29 43 1 c37 1 39 2 14 8 -27 5
-28 7 -12 20 9 8 22 23 27 33 9 16 6 18 -28 17 -21 -1 -30 -3 -20 -6z"/>
<path d="M770 830 c0 -22 5 -40 10 -40 6 0 10 7 10 15 0 8 9 15 20 15 11 0 20
-7 20 -15 0 -8 4 -15 9 -15 5 0 8 18 8 40 -1 22 -5 40 -9 40 -4 0 -8 -7 -8
-15 0 -8 -9 -15 -20 -15 -11 0 -20 7 -20 15 0 8 -4 15 -10 15 -5 0 -10 -18
-10 -40z"/>
<path d="M872 858 c-7 -7 -12 -20 -12 -29 0 -43 72 -53 78 -11 6 42 -37 69
-66 40z m43 -28 c0 -13 -6 -25 -12 -27 -16 -6 -27 21 -19 43 9 23 31 11 31
-16z"/>
<path d="M961 828 c1 -39 2 -40 8 -13 l7 30 18 -27 c25 -39 36 -35 36 12 0 41
-20 58 -21 18 l0 -23 -16 23 c-23 33 -33 27 -32 -20z"/>
<path d="M1054 856 c-3 -8 -4 -25 -2 -38 2 -18 10 -24 36 -26 29 -3 32 -1 32
22 0 26 -23 36 -35 16 -3 -5 2 -10 11 -10 14 0 15 -3 6 -12 -16 -16 -35 3 -30
28 2 13 10 18 27 16 15 -2 21 0 17 7 -10 16 -56 13 -62 -3z"/>
<path d="M1140 830 c0 -22 5 -40 10 -40 6 0 10 7 10 15 0 20 17 19 29 -2 5
-10 12 -15 16 -11 3 3 1 15 -6 26 -10 17 -10 23 0 36 18 21 3 21 -21 -1 -17
-15 -18 -15 -18 0 0 10 -4 17 -10 17 -5 0 -10 -18 -10 -40z"/>
<path d="M1230 830 c0 -40 0 -40 38 -39 30 2 32 3 10 6 -32 5 -38 23 -8 23 11
0 20 5 20 10 0 6 -9 10 -20 10 -27 0 -25 18 3 23 16 3 13 5 -10 6 -32 1 -33 0
-33 -39z"/>
<path d="M1390 830 c0 -39 1 -40 33 -39 21 1 25 3 12 6 -31 8 -42 23 -17 23
12 0 22 5 22 10 0 6 -10 10 -22 10 -25 0 -14 15 17 23 13 3 9 5 -12 6 -32 1
-33 0 -33 -39z"/>
<path d="M1471 833 c-1 -42 0 -43 32 -42 29 1 30 2 7 8 -19 5 -27 16 -31 41
-6 35 -6 35 -8 -7z"/>
<path d="M1540 830 c0 -40 0 -40 38 -39 30 2 32 3 10 6 -32 5 -38 23 -8 23 11
0 20 5 20 10 0 6 -10 10 -22 10 -25 0 -14 15 17 23 11 3 4 5 -17 6 -38 1 -38
1 -38 -39z"/>
<path d="M1631 856 c-8 -10 -11 -26 -7 -42 5 -20 12 -25 33 -22 15 2 29 10 31
18 5 13 3 13 -11 2 -19 -16 -37 -8 -37 18 0 26 18 34 37 18 14 -11 16 -11 11
2 -6 21 -42 24 -57 6z"/>
<path d="M1710 859 c0 -5 5 -7 10 -4 6 4 10 -8 10 -29 0 -20 5 -36 10 -36 6 0
10 13 10 30 0 17 7 33 18 39 14 8 10 10 -20 11 -21 0 -38 -5 -38 -11z"/>
<path d="M1798 863 c-9 -17 -7 -62 2 -68 6 -3 10 1 10 9 0 20 16 21 24 1 10
-28 23 -15 22 23 -1 32 -4 37 -28 40 -14 2 -28 0 -30 -5z m42 -18 c0 -8 -4
-15 -9 -15 -13 0 -22 16 -14 24 11 11 23 6 23 -9z"/>
<path d="M1880 830 c0 -22 5 -40 10 -40 6 0 10 18 10 40 0 22 -4 40 -10 40 -5
0 -10 -18 -10 -40z"/>
<path d="M1920 851 c-15 -29 3 -61 35 -61 13 0 27 5 30 11 10 16 -4 24 -17 11
-7 -7 -15 -12 -19 -12 -14 0 -19 33 -8 46 9 12 15 12 27 2 13 -11 14 -10 10 2
-7 24 -45 24 -58 1z"/>
</g>
</svg>
